<svg width="1216" height="608" viewBox="0 0 1216 608" fill="none" xmlns="http://www.w3.org/2000/svg">
<path d="M383.273 420.984L553.256 590.967C556.769 594.48 562.733 591.499 562.03 586.58L561.562 583.307" stroke="#2563EB" stroke-width="24.816"/>
<path d="M732.25 423.57L562.683 593.137C559.896 595.925 555.139 594.692 554.056 590.902L551.3 581.255" stroke="#2563EB" stroke-width="24.816"/>
<path d="M416.879 180.578L266.949 30.6481L266.949 180.578" stroke="#2563EB" stroke-width="24.816"/>
<path d="M696.059 180.578L837.163 39.4738C840.42 36.2169 845.989 38.5236 845.989 43.1296L845.989 180.578" stroke="#2563EB" stroke-width="24.816"/>
<rect x="546.129" y="418.398" width="25.85" height="165.44" fill="#2563EB"/>
<path d="M16.7568 401.031V195.793H41.9657V321.837C55.2836 313.513 67.6503 304.952 80.9682 296.628C132.337 263.096 183.231 230.039 234.838 196.506L236.027 195.793H277.883L265.517 203.878C221.044 232.417 178.237 260.48 133.764 289.256C155.644 306.617 177.285 323.978 199.165 341.338C220.806 358.699 241.972 376.06 263.852 393.183L273.602 401.031H235.551L234.362 400.08C213.434 383.67 192.744 367.261 171.815 350.376C151.839 334.204 132.337 319.221 112.598 303.049C97.3778 312.562 82.6329 322.313 68.1259 332.063C60.5157 337.058 53.1432 341.814 45.533 346.808C44.5817 347.522 43.1548 347.997 41.9657 348.949V401.031H16.7568ZM296.846 195.793H322.055V378.438H516.353V401.031H296.846V195.793ZM711.637 401.031V195.793H885.959C919.016 195.793 943.036 222.428 943.036 251.68C943.036 280.932 919.016 307.568 885.959 307.568H838.633C881.678 325.404 921.157 352.992 942.085 394.848L945.176 401.031H919.254L918.065 398.653C883.581 340.625 806.052 311.373 736.846 307.568V401.031H711.637ZM736.846 218.385V284.975H885.959C904.747 284.975 919.492 269.279 919.492 251.68C919.492 233.844 904.747 218.148 885.959 218.148C885.246 218.148 885.008 218.385 884.294 218.385H736.846ZM971.288 401.031V195.793H1145.61C1178.67 195.793 1202.69 222.428 1202.69 251.68C1202.69 280.932 1178.67 307.568 1145.61 307.568H1098.28C1141.33 325.404 1180.81 352.992 1201.74 394.848L1204.83 401.031H1178.91L1177.72 398.653C1143.23 340.625 1065.7 311.373 996.497 307.568V401.031H971.288ZM996.497 218.385V284.975H1145.61C1164.4 284.975 1179.14 269.279 1179.14 251.68C1179.14 233.844 1164.4 218.148 1145.61 218.148C1144.9 218.148 1144.66 218.385 1143.95 218.385H996.497Z" fill="black"/>
<path d="M423.782 195.793H457.79L458.979 197.457C463.498 201.976 467.541 206.494 471.584 211.251L559.815 307.806C565.285 302.336 570.041 296.628 575.036 290.921C592.634 271.419 609.995 252.394 627.356 233.606C634.253 225.996 641.387 218.623 648.046 211.251C652.089 206.494 655.894 201.738 660.413 197.219L661.84 195.793H692.756L686.335 202.927C682.292 207.684 678.249 212.202 673.731 216.959L571.706 327.545V401.031H546.497V328.021L443.045 216.959C438.527 212.202 434.484 207.684 429.965 202.927L423.782 195.793Z" fill="#2563EB"/>
</svg>
