<svg width="1216" height="714" viewBox="0 0 1216 714" fill="none" xmlns="http://www.w3.org/2000/svg">
<path d="M383.273 420.984L553.256 590.967C556.769 594.48 562.733 591.499 562.03 586.58L561.562 583.307" stroke="#2563EB" stroke-width="24.816"/>
<path d="M732.25 423.57L562.683 593.137C559.896 595.925 555.139 594.692 554.056 590.902L551.3 581.255" stroke="#2563EB" stroke-width="24.816"/>
<path d="M416.879 180.578L266.949 30.6481L266.949 180.578" stroke="#2563EB" stroke-width="24.816"/>
<path d="M696.059 180.578L837.163 39.4738C840.42 36.2169 845.989 38.5236 845.989 43.1296L845.989 180.578" stroke="#2563EB" stroke-width="24.816"/>
<rect x="546.129" y="418.398" width="25.85" height="165.44" fill="#2563EB"/>
<path d="M16.7568 401.031V195.793H41.9657V321.837C55.2836 313.513 67.6503 304.952 80.9682 296.628C132.337 263.096 183.231 230.039 234.838 196.506L236.027 195.793H277.883L265.517 203.878C221.044 232.417 178.237 260.48 133.764 289.256C155.644 306.617 177.285 323.978 199.165 341.338C220.806 358.699 241.972 376.06 263.852 393.183L273.602 401.031H235.551L234.362 400.08C213.434 383.67 192.744 367.261 171.815 350.376C151.839 334.204 132.337 319.221 112.598 303.049C97.3778 312.562 82.6329 322.313 68.1259 332.063C60.5157 337.058 53.1432 341.814 45.533 346.808C44.5817 347.522 43.1548 347.997 41.9657 348.949V401.031H16.7568ZM296.846 195.793H322.055V378.438H516.353V401.031H296.846V195.793ZM711.637 401.031V195.793H885.959C919.016 195.793 943.036 222.428 943.036 251.68C943.036 280.932 919.016 307.568 885.959 307.568H838.633C881.678 325.404 921.157 352.992 942.085 394.848L945.176 401.031H919.254L918.065 398.653C883.581 340.625 806.052 311.373 736.846 307.568V401.031H711.637ZM736.846 218.385V284.975H885.959C904.747 284.975 919.492 269.279 919.492 251.68C919.492 233.844 904.747 218.148 885.959 218.148C885.246 218.148 885.008 218.385 884.294 218.385H736.846ZM971.288 401.031V195.793H1145.61C1178.67 195.793 1202.69 222.428 1202.69 251.68C1202.69 280.932 1178.67 307.568 1145.61 307.568H1098.28C1141.33 325.404 1180.81 352.992 1201.74 394.848L1204.83 401.031H1178.91L1177.72 398.653C1143.23 340.625 1065.7 311.373 996.497 307.568V401.031H971.288ZM996.497 218.385V284.975H1145.61C1164.4 284.975 1179.14 269.279 1179.14 251.68C1179.14 233.844 1164.4 218.148 1145.61 218.148C1144.9 218.148 1144.66 218.385 1143.95 218.385H996.497Z" fill="black"/>
<path d="M423.782 195.793H457.79L458.979 197.457C463.498 201.976 467.541 206.494 471.584 211.251L559.815 307.806C565.285 302.336 570.041 296.628 575.036 290.921C592.634 271.419 609.995 252.394 627.356 233.606C634.253 225.996 641.387 218.623 648.046 211.251C652.089 206.494 655.894 201.738 660.413 197.219L661.84 195.793H692.756L686.335 202.927C682.292 207.684 678.249 212.202 673.731 216.959L571.706 327.545V401.031H546.497V328.021L443.045 216.959C438.527 212.202 434.484 207.684 429.965 202.927L423.782 195.793Z" fill="#2563EB"/>
<path d="M71.842 657.074C70.4788 650.031 64.6474 646.093 57.68 646.093C48.2135 646.093 41.1704 653.363 41.1704 666.616C41.1704 679.945 48.2892 687.14 57.68 687.14C64.5717 687.14 70.4031 683.277 71.842 676.31L80.2483 676.386C78.5064 687.215 69.6458 694.789 57.6043 694.789C43.2909 694.789 32.9155 684.11 32.9155 666.616C32.9155 649.046 43.3666 638.444 57.6043 638.444C69.1914 638.444 78.355 645.26 80.2483 657.074H71.842ZM96.6822 639.201V694.031H88.5789V639.201H96.6822ZM111.904 694.031H103.044L122.734 639.201H132.352L152.118 694.031H143.258L138.259 679.566H116.903L111.904 694.031ZM119.326 672.599H135.836L127.733 649.198H127.354L119.326 672.599ZM159.086 694.031V639.201H178.625C191.348 639.201 197.634 646.32 197.634 656.392C197.634 663.776 194.301 669.38 187.637 671.842L199.754 694.031H190.288L179.155 673.356H178.625H167.416V694.031H159.086ZM167.416 666.162H177.792C185.895 666.162 189.227 662.602 189.227 656.392C189.227 650.182 185.895 646.32 177.792 646.32H167.416V666.162ZM215.203 639.201V694.031H206.873V639.201H215.203ZM223.61 646.396V639.201H266.096V646.396H249.056V694.031H240.725V646.396H223.61ZM270.337 639.201H279.803L294.041 664.041H294.647L308.96 639.201H318.427L298.509 672.523V694.031H290.179V672.523L270.337 639.201ZM382.724 694.031V639.201H402.263C414.986 639.201 421.271 646.85 421.271 656.998C421.271 667.071 414.986 674.795 402.263 674.795H391.054V694.031H382.724ZM391.054 667.676H401.43C409.533 667.676 412.865 663.132 412.865 656.998C412.865 650.788 409.533 646.32 401.43 646.32H391.054V667.676ZM430.056 694.031V639.201H449.595C462.318 639.201 468.604 646.32 468.604 656.392C468.604 663.776 465.272 669.38 458.608 671.842L470.725 694.031H461.258L450.125 673.356H449.595H438.387V694.031H430.056ZM438.387 666.162H448.762C456.866 666.162 460.198 662.602 460.198 656.392C460.198 650.182 456.866 646.32 448.762 646.32H438.387V666.162ZM477.844 694.031V639.201H512.226V646.396H486.174V662.981H510.408V670.1H486.174V686.837H512.529V694.031H477.844ZM559.559 657.074C558.196 650.031 552.364 646.093 545.397 646.093C535.93 646.093 528.887 653.363 528.887 666.616C528.887 679.945 536.006 687.14 545.397 687.14C552.289 687.14 558.12 683.277 559.559 676.31L567.965 676.386C566.223 687.215 557.363 694.789 545.321 694.789C531.008 694.789 520.632 684.11 520.632 666.616C520.632 649.046 531.083 638.444 545.321 638.444C556.908 638.444 566.072 645.26 567.965 657.074H559.559ZM585.308 639.201V694.031H576.977V639.201H585.308ZM626.279 653.666C625.749 648.592 621.281 645.638 614.995 645.638C608.255 645.638 604.014 649.046 604.014 653.742C604.014 658.967 609.694 660.936 614.01 661.996L619.312 663.435C626.355 665.101 635.064 668.964 635.14 678.885C635.064 688.124 627.718 694.94 614.768 694.94C602.499 694.94 594.774 688.806 594.244 678.809H602.575C603.105 684.792 608.33 687.67 614.768 687.67C621.735 687.67 626.809 684.11 626.885 678.733C626.809 673.962 622.341 671.993 616.51 670.478L609.997 668.737C601.212 666.313 595.683 661.845 595.683 654.196C595.683 644.729 604.165 638.444 615.222 638.444C626.355 638.444 634.155 644.805 634.382 653.666H626.279ZM652.407 639.201V694.031H644.076V639.201H652.407ZM711.175 666.616C711.175 684.11 700.648 694.789 686.486 694.789C672.173 694.789 661.722 684.11 661.722 666.616C661.722 649.046 672.173 638.444 686.486 638.444C700.648 638.444 711.175 649.046 711.175 666.616ZM702.92 666.616C702.92 653.287 695.877 646.093 686.486 646.093C677.02 646.093 669.977 653.287 669.977 666.616C669.977 679.945 677.02 687.14 686.486 687.14C695.877 687.14 702.92 679.945 702.92 666.616ZM764.794 639.201V694.031H757.145L729.351 653.969H728.896V694.031H720.566V639.201H728.291L756.084 679.339H756.615V639.201H764.794ZM833.407 694.031V639.201H852.946C865.669 639.201 871.955 646.32 871.955 656.392C871.955 663.776 868.623 669.38 861.958 671.842L874.076 694.031H864.609L853.476 673.356H852.946H841.738V694.031H833.407ZM841.738 666.162H852.113C860.217 666.162 863.549 662.602 863.549 656.392C863.549 650.182 860.217 646.32 852.113 646.32H841.738V666.162ZM881.194 694.031V639.201H915.577V646.396H889.525V662.981H913.759V670.1H889.525V686.837H915.88V694.031H881.194ZM930.648 639.201L945.87 683.807H946.476L961.698 639.201H970.71L950.944 694.031H941.326L921.636 639.201H930.648ZM977.678 694.031V639.201H1012.06V646.396H986.008V662.981H1010.24V670.1H986.008V686.837H1012.36V694.031H977.678ZM1066.51 639.201V694.031H1058.86L1031.07 653.969H1030.61V694.031H1022.28V639.201H1030.01L1057.8 679.339H1058.33V639.201H1066.51ZM1112.94 639.201H1121.27V675.25C1121.27 686.761 1112.63 694.94 1099.53 694.94C1086.28 694.94 1077.72 686.761 1077.72 675.25V639.201H1086.05V674.568C1086.05 681.99 1091.2 687.367 1099.53 687.367C1107.79 687.367 1112.94 681.99 1112.94 674.568V639.201ZM1132.47 694.031V639.201H1166.86V646.396H1140.81V662.981H1165.04V670.1H1140.81V686.837H1167.16V694.031H1132.47Z" fill="black"/>
<path d="M348.871 694.561C345.918 694.561 343.418 692.138 343.494 689.184C343.418 686.231 345.918 683.807 348.871 683.807C351.749 683.807 354.248 686.231 354.248 689.184C354.248 692.138 351.749 694.561 348.871 694.561ZM799.555 694.561C796.601 694.561 794.102 692.138 794.178 689.184C794.102 686.231 796.601 683.807 799.555 683.807C802.433 683.807 804.932 686.231 804.932 689.184C804.932 692.138 802.433 694.561 799.555 694.561Z" fill="#2563EB"/>
</svg>
